<svg width="32" height="32" viewBox="0 0 32 32" fill="none" xmlns="http://www.w3.org/2000/svg">
<rect x="32" width="32" height="32" rx="16" transform="rotate(90 32 0)" fill="#0D53BB"/>
<path d="M23.5 20.7475C23.5 21.0175 23.4399 21.295 23.3122 21.565C23.1845 21.835 23.0193 22.09 22.8015 22.33C22.4334 22.735 22.0278 23.0275 21.5696 23.215C21.1189 23.4025 20.6307 23.5 20.1049 23.5C19.3388 23.5 18.52 23.32 17.6562 22.9525C16.7924 22.585 15.9286 22.09 15.0724 21.4675C14.2086 20.8375 13.3898 20.14 12.6087 19.3675C11.835 18.5875 11.1365 17.77 10.513 16.915C9.8971 16.06 9.40135 15.205 9.04081 14.3575C8.68027 13.5025 8.5 12.685 8.5 11.905C8.5 11.395 8.59014 10.9075 8.77041 10.4575C8.95068 10 9.2361 9.58 9.6342 9.205C10.1149 8.7325 10.6407 8.5 11.1965 8.5C11.4069 8.5 11.6172 8.545 11.805 8.635C12.0003 8.725 12.173 8.86 12.3082 9.055L14.0508 11.5075C14.186 11.695 14.2837 11.8675 14.3513 12.0325C14.4189 12.19 14.4564 12.3475 14.4564 12.49C14.4564 12.67 14.4039 12.85 14.2987 13.0225C14.2011 13.195 14.0583 13.375 13.8781 13.555L13.3072 14.1475C13.2246 14.23 13.187 14.3275 13.187 14.4475C13.187 14.5075 13.1945 14.56 13.2096 14.62C13.2321 14.68 13.2546 14.725 13.2697 14.77C13.4049 15.0175 13.6377 15.34 13.9682 15.73C14.3062 16.12 14.6667 16.5175 15.0573 16.915C15.4629 17.3125 15.8535 17.68 16.2516 18.0175C16.6422 18.3475 16.9652 18.5725 17.2206 18.7075C17.2581 18.7225 17.3032 18.745 17.3558 18.7675C17.4159 18.79 17.476 18.7975 17.5436 18.7975C17.6713 18.7975 17.7689 18.7525 17.8515 18.67L18.4224 18.1075C18.6102 17.92 18.7904 17.7775 18.9632 17.6875C19.136 17.5825 19.3087 17.53 19.4965 17.53C19.6392 17.53 19.7894 17.56 19.9547 17.6275C20.1199 17.695 20.2927 17.7925 20.4805 17.92L22.9667 19.6825C23.162 19.8175 23.2972 19.975 23.3798 20.1625C23.4549 20.35 23.5 20.5375 23.5 20.7475Z" fill="white"/>
</svg>
