<svg width="42" height="43" viewBox="0 0 42 43" fill="none" xmlns="http://www.w3.org/2000/svg">
<rect x="3.89062" y="4.66235" width="34.2222" height="34.2222" rx="11.6667" fill="#0D53BB"/>
<rect x="41.6111" y="42.3846" width="41.2222" height="41.2222" rx="11.2778" transform="rotate(180 41.6111 42.3846)" stroke="#0D53BB" stroke-width="0.777778"/>
<path d="M23.0877 13.2179H27.2196V15.2839H23.0877V13.2179ZM12.7092 18.395H16.8655V20.4853H12.7092V18.395ZM12.7092 26.7075H16.8655V28.7735H12.7092V26.7075ZM11.6641 22.5513H15.8203V24.6172H11.6641V22.5513ZM32.105 17.0582L30.6467 15.5999L28.8724 17.3742C28.3377 17.0501 27.7543 16.7949 27.1224 16.6086C26.4904 16.4222 25.8342 16.329 25.1536 16.329C24.149 16.329 23.2092 16.5235 22.3342 16.9124C21.443 17.2851 20.6693 17.7995 20.013 18.4558C19.3568 19.112 18.8423 19.8857 18.4696 20.777C18.0807 21.652 17.8863 22.5918 17.8863 23.5964C17.8863 24.5848 18.0807 25.5246 18.4696 26.4158C18.8423 27.2908 19.3568 28.0565 20.013 28.7127C20.6693 29.369 21.443 29.8915 22.3342 30.2804C23.2092 30.6531 24.149 30.8395 25.1536 30.8395C26.1583 30.8395 27.0981 30.6531 27.9731 30.2804C28.8643 29.8915 29.638 29.369 30.2943 28.7127C30.9505 28.0565 31.465 27.2908 31.8377 26.4158C32.2266 25.5246 32.421 24.5848 32.421 23.5964C32.421 22.6404 32.2468 21.7411 31.8984 20.8985C31.5501 20.0559 31.0761 19.3186 30.4766 18.6867H30.5009L32.105 17.0582ZM26.1988 24.6172H24.1085V19.3915H26.1988V24.6172Z" fill="white"/>
</svg>
